<svg xmlns="http://www.w3.org/2000/svg" version="1.1" xmlns:xlink="http://www.w3.org/1999/xlink" width="1000" height="1000"><style>
    #light-icon {
      display: inline;
    }
    #dark-icon {
      display: none;
    }

    @media (prefers-color-scheme: dark) {
      #light-icon {
        display: none;
      }
      #dark-icon {
        display: inline;
      }
    }
  </style><g id="light-icon"><svg xmlns="http://www.w3.org/2000/svg" version="1.1" xmlns:xlink="http://www.w3.org/1999/xlink" width="1000" height="1000"><g><g transform="matrix(2.5641025641025643,0,0,2.5641025641025643,-5.684341886080802e-14,-5.684341886080802e-14)"><svg xmlns="http://www.w3.org/2000/svg" version="1.1" xmlns:xlink="http://www.w3.org/1999/xlink" width="390" height="390"><svg xmlns="http://www.w3.org/2000/svg" width="390" height="390" fill="none" viewBox="0 0 390 390"><path fill="#000" d="M191.024.838c47.826-1.28 96.839 17.107 129.519 52.587 21.28 23.213 35.6 53.2 38.04 84.773 3.76 32.96-2.786 66.974-18.906 96-10.173 19.094-24.001 36.4-41.067 49.774-12.48 9.266-27.307 14.48-41.16 21.266-15.88 8.48-29.8 20.053-44.374 30.52-26.973 19.693-56.533 36.28-88.626 45.933-11.973 3.627-24.214 7.254-36.8 7.534-.814-31.867-.04-63.774-.36-95.654.187-5.373-4.2-9.066-7.266-12.906-24.547-28.24-42.374-62.973-47.787-100.2-5.187-32.653.613-66.907 16.186-96.067 14.493-27.746 38.28-50.213 66.027-64.52 23.8-11.613 50.04-18.453 76.574-19.04m76.519 115.64c-2.36-.467-4.747-.907-7.16-.68-17.533 1.653-35.2 2.573-52.493 6.186-18 3.534-35.867 7.84-53.347 13.454-16.973 4.786-33.293 11.56-50.106 16.813-7.2 2.32-14.8 3.347-21.8 6.267-3.28 1.293-2.627 5.56-2.947 8.4.04 28.933.107 57.867-.027 86.8 0 3.573.107 7.427 2.307 10.427 4.72 6.733 11.494 11.573 17.48 17.066 2.094 1.693 1.493 4.654 1.72 7.027-.133 21.36-.04 42.734-.08 64.107.04 6.693-.44 13.44.653 20.08 3.12-.147 6.267-.507 9.267-1.453 25.013-7.334 49.52-17.027 71.667-30.92 23.213-12.6 41.32-32.974 65.493-44.014 6.28-3.16 13.373-4.547 19.213-8.573.787-10.36.12-20.747.32-31.134-.106-46.613.213-93.24-.16-139.853m26.974 2.72c-.174 36.374.026 72.76-.08 109.147-.027 5.84-.294 11.733.653 17.533 14-6.227 21.906-20.227 27.946-33.547 6.334-13.866 9.907-28.853 11.241-44.013.826-12.706-2.374-26.399-11.667-35.573-7.467-7.426-17.427-13.04-28.093-13.547m-178.347 68.36c32.387-.08 64.787-.2 97.174.067 1.626 3.947 1.132 8.24.319 12.319-7.666 1.507-15.493.227-23.2 1.04-3.32 3.414-5.2 8.228-9.453 10.748-8.24 4.986-18.734 5.32-27.854 2.853-6.986-1.787-10.759-8.294-14.586-13.787-7.426-.253-14.907.4-22.253-.96-1.147-4.027-1.014-8.214-.147-12.28"></path></svg></svg></g></g></svg></g><g id="dark-icon"><svg xmlns="http://www.w3.org/2000/svg" version="1.1" xmlns:xlink="http://www.w3.org/1999/xlink" width="1000" height="1000"><g><g transform="matrix(2.5641025641025643,0,0,2.5641025641025643,-5.684341886080802e-14,-5.684341886080802e-14)"><svg xmlns="http://www.w3.org/2000/svg" version="1.1" xmlns:xlink="http://www.w3.org/1999/xlink" width="390" height="390"><svg xmlns="http://www.w3.org/2000/svg" width="390" height="390" fill="none" viewBox="0 0 390 390"><path fill="#fff" d="M191.024.838c47.826-1.28 96.839 17.107 129.519 52.587 21.28 23.213 35.6 53.2 38.04 84.773 3.76 32.96-2.786 66.974-18.906 96-10.173 19.094-24.001 36.4-41.067 49.774-12.48 9.266-27.307 14.48-41.16 21.266-15.88 8.48-29.8 20.053-44.374 30.52-26.973 19.693-56.533 36.28-88.626 45.933-11.973 3.627-24.214 7.254-36.8 7.534-.814-31.867-.04-63.774-.36-95.654.187-5.373-4.2-9.066-7.266-12.906-24.547-28.24-42.374-62.973-47.787-100.2-5.187-32.653.613-66.907 16.186-96.067 14.493-27.746 38.28-50.213 66.027-64.52 23.8-11.613 50.04-18.453 76.574-19.04m76.519 115.64c-2.36-.467-4.747-.907-7.16-.68-17.533 1.653-35.2 2.573-52.493 6.186-18 3.534-35.867 7.84-53.347 13.454-16.973 4.786-33.293 11.56-50.106 16.813-7.2 2.32-14.8 3.347-21.8 6.267-3.28 1.293-2.627 5.56-2.947 8.4.04 28.933.107 57.867-.027 86.8 0 3.573.107 7.427 2.307 10.427 4.72 6.733 11.494 11.573 17.48 17.066 2.094 1.693 1.493 4.654 1.72 7.027-.133 21.36-.04 42.734-.08 64.107.04 6.693-.44 13.44.653 20.08 3.12-.147 6.267-.507 9.267-1.453 25.013-7.334 49.52-17.027 71.667-30.92 23.213-12.6 41.32-32.974 65.493-44.014 6.28-3.16 13.373-4.547 19.213-8.573.787-10.36.12-20.747.32-31.134-.106-46.613.213-93.24-.16-139.853m26.974 2.72c-.174 36.374.026 72.76-.08 109.147-.027 5.84-.294 11.733.653 17.533 14-6.227 21.906-20.227 27.946-33.547 6.334-13.866 9.907-28.853 11.241-44.013.826-12.706-2.374-26.399-11.667-35.573-7.467-7.426-17.427-13.04-28.093-13.547m-178.347 68.36c32.387-.08 64.787-.2 97.174.067 1.626 3.947 1.132 8.24.319 12.319-7.666 1.507-15.493.227-23.2 1.04-3.32 3.414-5.2 8.228-9.453 10.748-8.24 4.986-18.734 5.32-27.854 2.853-6.986-1.787-10.759-8.294-14.586-13.787-7.426-.253-14.907.4-22.253-.96-1.147-4.027-1.014-8.214-.147-12.28"></path></svg></svg></g></g></svg></g></svg>