<svg xmlns="http://www.w3.org/2000/svg" width="183" height="211" fill="none" viewBox="0 0 183 211"><path fill="#000" d="M89.636 16.745c21.789-.583 44.12 7.794 59.009 23.96 9.696 10.575 16.22 24.237 17.331 38.622 1.714 15.017-1.269 30.514-8.613 43.738-4.635 8.7-10.935 16.584-18.711 22.678-5.686 4.221-12.441 6.597-18.752 9.689-7.235 3.863-13.577 9.136-20.217 13.905-12.29 8.972-25.757 16.529-40.379 20.927-5.455 1.652-11.032 3.305-16.766 3.433-.37-14.519-.018-29.056-.164-43.581.085-2.448-1.914-4.13-3.31-5.88-11.184-12.866-19.306-28.691-21.772-45.652-2.364-14.877.279-30.483 7.374-43.768 6.603-12.641 17.44-22.878 30.082-29.396 10.844-5.29 22.799-8.407 34.888-8.675m34.862 52.686c-1.075-.212-2.163-.413-3.262-.31-7.988.754-16.037 1.173-23.916 2.82-8.201 1.61-16.341 3.571-24.305 6.129-7.733 2.18-15.169 5.267-22.829 7.66-3.28 1.057-6.743 1.525-9.932 2.855-1.494.59-1.197 2.533-1.343 3.827.018 13.182.049 26.365-.012 39.547 0 1.628.049 3.384 1.051 4.75 2.15 3.068 5.237 5.273 7.964 7.776.954.771.68 2.12.784 3.201-.06 9.732-.019 19.47-.037 29.208.018 3.049-.2 6.123.298 9.148 1.421-.067 2.855-.231 4.222-.662 11.396-3.341 22.561-7.757 32.652-14.087 10.576-5.741 18.825-15.023 29.839-20.053 2.861-1.44 6.093-2.072 8.753-3.906.359-4.72.055-9.452.146-14.185-.048-21.237.097-42.48-.073-63.717m12.29 1.24c-.08 16.572.011 33.15-.037 49.728-.012 2.66-.134 5.345.298 7.988 6.378-2.837 9.98-9.216 12.732-15.284 2.886-6.318 4.514-13.146 5.122-20.053.376-5.789-1.082-12.027-5.316-16.207-3.402-3.383-7.94-5.941-12.799-6.172m-81.256 31.145c14.755-.036 29.517-.091 44.273.03.741 1.799.516 3.755.145 5.613-3.493.687-7.059.103-10.57.474-1.512 1.555-2.37 3.749-4.307 4.897-3.754 2.271-8.535 2.424-12.69 1.3-3.183-.815-4.902-3.779-6.646-6.282-3.383-.115-6.791.182-10.138-.437-.523-1.835-.462-3.743-.067-5.595"/><path fill="#fff" d="M89.282.749c25.467-.662 51.955 8.902 70.265 28.187l.867.927.013.014.013.015c11.759 12.827 19.979 29.66 21.463 47.902 2.014 18.169-1.598 36.915-10.552 53.039-5.547 10.336-13.176 19.937-22.829 27.502l-.164.129-.167.124c-4.079 3.028-8.277 5.201-11.839 6.886-4.488 2.122-5.799 2.565-9.159 4.201-5.869 3.174-10.406 7.075-18.176 12.656l-.001-.001c-13.246 9.659-28.29 18.192-45.073 23.245-5.171 1.566-12.79 3.933-21.05 4.116l-15.943.355-.407-15.942c-.335-13.122-.09-27.396-.143-40.06-12.516-14.623-21.945-32.873-24.91-52.95l-.132-.861c-2.678-18.072.6-36.863 9.195-52.956 8.27-15.761 21.604-28.21 36.863-36.079l.157-.08.159-.079C60.46 4.829 74.65 1.084 89.208.751V.75h.024l.05-.002m59.364 39.954c-14.89-16.165-37.22-24.542-59.01-23.959l-1.133.033c-11.702.431-23.25 3.516-33.755 8.642-12.641 6.518-23.479 16.754-30.082 29.395-7.095 13.286-9.738 28.892-7.375 43.769 2.466 16.961 10.589 32.786 21.773 45.652 1.397 1.75 3.395 3.432 3.31 5.88.146 14.525-.207 29.062.164 43.58 5.734-.127 11.311-1.78 16.766-3.432 14.621-4.398 28.09-11.955 40.379-20.927 6.64-4.769 12.982-10.042 20.217-13.905 6.311-3.092 13.067-5.467 18.752-9.689 7.776-6.093 14.077-13.978 18.711-22.678 7.345-13.224 10.327-28.721 8.614-43.738-1.112-14.385-7.636-28.047-17.331-38.623m-27.41 28.418c1.1-.103 2.187.097 3.262.31.17 21.237.025 42.48.073 63.717-.091 4.733.212 9.465-.146 14.185-2.661 1.834-5.892 2.466-8.753 3.906-11.013 5.03-19.263 14.312-29.839 20.053-10.09 6.33-21.256 10.745-32.652 14.087-1.367.431-2.8.595-4.222.662-.498-3.025-.28-6.099-.298-9.149.018-9.737-.024-19.475.036-29.207-.103-1.081.171-2.43-.783-3.202-2.727-2.502-5.813-4.708-7.964-7.775-1.002-1.367-1.05-3.122-1.05-4.75.06-13.182.03-26.365.011-39.547.146-1.294-.151-3.238 1.343-3.827 3.19-1.33 6.652-1.799 9.933-2.856 7.66-2.393 15.095-5.48 22.828-7.66 7.466-2.398 15.087-4.271 22.768-5.823l1.537-.306c7.879-1.646 15.928-2.065 23.916-2.818m-18.2 54.036c-2.241.441-4.36.59-6.078.638a22 22 0 0 1-3.602 2.721v.001l-.034.02-.092.057-.001-.002c-8.433 5.044-17.854 4.87-24.81 3.036v.002l-.153-.041-.06-.016v-.001c-4.574-1.217-7.905-3.622-10.201-5.827a44 44 0 0 1-3.08-.262q-.007 2.93-.019 5.863c.383.336.807.702 1.34 1.16.621.534 1.398 1.204 2.2 1.931 4.768 4.126 5.809 9.334 6.08 11.749.12 1.074.133 2.037.136 2.367l.04.419-.005.813a2489 2489 0 0 0-.033 16.55c4.464-1.93 8.7-4.109 12.666-6.597l.427-.267.443-.241c3.909-2.121 7.466-4.933 12.625-8.907 4.632-3.567 10.58-8.078 17.724-11.418-.008-1.111-.006-2.375.021-3.87q-.01-5.501-.008-10.964zm33.752-52.487c4.859.23 9.397 2.788 12.799 6.172 4.234 4.18 5.692 10.418 5.315 16.207-.607 6.907-2.235 13.735-5.121 20.052-2.751 6.069-6.354 12.448-12.732 15.285-.431-2.643-.31-5.328-.298-7.989.048-16.578-.042-33.155.037-49.727m-36.983 31.176c-14.756-.122-29.517-.067-44.273-.031l-.07.348c-.33 1.743-.353 3.527.137 5.247 3.347.62 6.755.322 10.138.438 1.744 2.502 3.463 5.467 6.646 6.281 4.155 1.124 8.936.972 12.69-1.3 1.938-1.148 2.794-3.342 4.307-4.897 3.511-.371 7.078.212 10.57-.474.348-1.742.567-3.57-.017-5.274z"/></svg>